<svg width="22" height="22" viewBox="0 0 22 22" fill="none" xmlns="http://www.w3.org/2000/svg">
<path fill-rule="evenodd" clip-rule="evenodd" d="M21.0833 11C21.0833 16.5689 16.5689 21.0833 11 21.0833C5.43113 21.0833 0.916667 16.5689 0.916667 11C0.916667 5.43113 5.43113 0.916667 11 0.916667C16.5689 0.916667 21.0833 5.43113 21.0833 11ZM22 11C22 17.0751 17.0751 22 11 22C4.92487 22 0 17.0751 0 11C0 4.92487 4.92487 0 11 0C17.0751 0 22 4.92487 22 11ZM5.32812 7.27604V6.24479C5.86792 6.24479 6.32715 6.3737 6.68164 6.63151C7.03613 6.88932 7.25568 7.25187 7.39062 7.63053C7.59699 8.20529 7.65138 8.83457 7.70522 9.45763C7.72233 9.65554 7.73938 9.85282 7.76123 10.0475C7.85187 10.8552 8.01703 11.5803 8.43799 12.0778C8.80457 12.5108 9.38867 12.8512 10.4844 12.9318V7.27604H9.96875V6.24479H12.0312V7.27604H11.5156V12.9318C12.6133 12.8512 13.2055 12.5129 13.5781 12.0778C14.0051 11.5783 14.1763 10.8532 14.271 10.0475C14.2948 9.84469 14.3133 9.63866 14.3318 9.43184C14.3869 8.81721 14.4427 8.19568 14.6416 7.63053C14.7745 7.25389 14.986 6.89134 15.3345 6.63151C15.6829 6.37168 16.1401 6.24479 16.6719 6.24479V7.27604C16.3013 7.27604 16.0898 7.36265 15.9468 7.4694C15.8038 7.57615 15.697 7.73326 15.6084 7.98503C15.4814 8.34425 15.432 8.86675 15.3764 9.45407C15.3544 9.68672 15.3314 9.92955 15.3022 10.1764C15.1995 11.0465 15.0162 11.9972 14.3677 12.7546C13.7916 13.4273 12.8591 13.8724 11.5156 13.9631V16.5573H12.5469V17.5885H9.45312V16.5573H10.4844V13.9631C9.14294 13.8724 8.21844 13.4293 7.64844 12.7546C7.00592 11.9952 6.82666 11.0445 6.72998 10.1764C6.70502 9.9523 6.68449 9.73111 6.66468 9.5177C6.60776 8.90455 6.5568 8.35557 6.42383 7.98503C6.33521 7.73527 6.21838 7.57817 6.06934 7.4694C5.92029 7.36064 5.71283 7.27604 5.32812 7.27604Z" fill="#4F4F4F"/>
</svg>
