<svg width="334" height="423" viewBox="0 0 334 423" fill="none" xmlns="http://www.w3.org/2000/svg">
<path fill-rule="evenodd" clip-rule="evenodd" d="M135.043 0.999974V0.49054L134.534 0.500061C101.758 1.11278 45.6138 10.5686 -2.01525 37.8361C-49.6658 65.116 -88.8299 110.254 -87.4654 182.188C-86.4609 235.146 -66.4512 265.197 -39.4574 278.493C-12.5007 291.772 21.2758 288.266 49.6918 274.432C78.1057 260.599 101.282 236.378 106.956 208.072C112.64 179.716 100.73 147.436 59.3367 117.594C48.4671 109.758 30.9697 105.748 13.9891 106.314C-2.42528 106.861 -18.5152 111.691 -27.7303 121.653C-26.504 89.9519 7.10426 25.0223 134.601 10.2116L135.043 10.1602V9.71491V0.999974ZM-86.4656 182.169C-87.8213 110.696 -48.9452 65.8557 -1.51841 38.7039C45.6841 11.6806 101.32 2.20849 134.043 1.51008V9.26988C4.73622 24.434 -28.4547 91.2128 -28.7633 123.004L-28.7768 124.388L-27.8819 123.332C-19.1121 112.986 -2.83301 107.875 14.0224 107.313C30.8687 106.752 48.1215 110.742 58.7519 118.406C99.9324 148.094 111.559 180.017 105.975 207.875C100.381 235.783 77.485 259.789 49.2541 273.533C21.0252 287.276 -12.4153 290.699 -39.0156 277.596C-65.5787 264.512 -85.4659 234.872 -86.4656 182.169ZM333.043 123V122.491L332.534 122.5C299.758 123.113 243.614 132.569 195.985 159.836C148.334 187.116 109.17 232.254 110.535 304.188C111.539 357.146 131.549 387.197 158.543 400.493C185.499 413.772 219.276 410.266 247.692 396.432C276.106 382.599 299.282 358.378 304.956 330.072C310.64 301.716 298.73 269.436 257.337 239.594C246.467 231.758 228.97 227.748 211.989 228.314C195.575 228.861 179.485 233.691 170.27 243.653C171.496 211.952 205.104 147.022 332.601 132.212L333.043 132.16V131.715V123ZM111.534 304.169C110.179 232.696 149.055 187.856 196.482 160.704C243.684 133.681 299.32 124.208 332.043 123.51V131.27C202.736 146.434 169.545 213.213 169.237 245.004L169.223 246.388L170.118 245.332C178.888 234.986 195.167 229.875 212.022 229.313C228.869 228.752 246.121 232.742 256.752 240.406C297.932 270.094 309.559 302.017 303.975 329.875C298.381 357.783 275.485 381.789 247.254 395.533C219.025 409.276 185.585 412.699 158.984 399.596C132.421 386.512 112.534 356.872 111.534 304.169ZM311.279 366.855C311.555 366.855 311.779 367.079 311.779 367.355C311.779 372.753 308.208 378.83 303.761 384.21C299.293 389.615 293.852 394.423 289.934 397.295C285.143 400.809 279.358 404.56 273.268 407.469C267.183 410.376 260.761 412.458 254.703 412.599C254.427 412.606 254.198 412.387 254.192 412.111C254.185 411.835 254.404 411.606 254.68 411.599C260.54 411.463 266.816 409.443 272.837 406.567C278.853 403.693 284.583 399.979 289.343 396.489C293.203 393.659 298.582 388.906 302.99 383.573C307.419 378.216 310.779 372.376 310.779 367.355C310.779 367.079 311.003 366.855 311.279 366.855ZM322.5 394C322.5 393.724 322.276 393.5 322 393.5C321.724 393.5 321.5 393.724 321.5 394C321.5 402.159 317.563 407.47 311.204 413.142C303.488 420.024 293.658 421.5 283 421.5C282.724 421.5 282.5 421.724 282.5 422C282.5 422.276 282.724 422.5 283 422.5C293.722 422.5 303.87 421.024 311.869 413.888C318.312 408.141 322.5 402.58 322.5 394Z" stroke="#4F4F4F"/>
</svg>
