<svg class="marks_a" width="317" height="318" viewBox="0 0 317 318" fill="none" xmlns="http://www.w3.org/2000/svg">
<path fill-rule="evenodd" clip-rule="evenodd" d="M167.62 0.383706V0L167.236 0.00717193C142.549 0.468673 100.261 7.59078 64.3871 28.1287C28.4967 48.6759 -1.00167 82.6735 0.0260675 136.855C0.782679 176.743 15.8539 199.377 36.1856 209.392C56.4894 219.393 81.9299 216.753 103.333 206.333C124.734 195.913 142.191 177.671 146.464 156.35C150.745 134.992 141.775 110.679 110.597 88.2026C102.41 82.3004 89.2314 79.2799 76.4416 79.7061C64.0783 80.1181 51.9594 83.7558 45.0186 91.2598C45.9422 67.3823 71.2559 18.4773 167.286 7.32188L167.62 7.28318V6.9478V0.383706ZM0.779132 136.841C-0.242016 83.0068 29.0395 49.233 64.7613 28.7823C100.314 8.42833 142.219 1.29396 166.866 0.767922V6.6126C69.4723 18.0342 44.4729 68.332 44.2404 92.2773L44.2303 93.3196L44.9043 92.5245C51.5098 84.7313 63.7712 80.882 76.4666 80.4589C89.1553 80.0361 102.15 83.0412 110.157 88.8136C141.174 111.175 149.932 135.219 145.726 156.202C141.512 177.222 124.267 195.303 103.003 205.655C81.7412 216.007 56.5538 218.585 36.5185 208.716C16.5111 198.861 1.5321 176.536 0.779132 136.841ZM316.753 92.2741V91.8904L316.37 91.8976C291.683 92.3591 249.395 99.4812 213.521 120.019C177.63 140.566 148.132 174.564 149.16 228.745C149.916 268.633 164.988 291.267 185.319 301.282C205.623 311.283 231.063 308.643 252.466 298.223C273.868 287.804 291.324 269.561 295.598 248.24C299.879 226.883 290.908 202.57 259.731 180.093C251.544 174.191 238.365 171.17 225.575 171.597C213.212 172.009 201.093 175.646 194.152 183.15C195.076 159.273 220.389 110.368 316.42 99.2123L316.753 99.1736V98.8382V92.2741ZM149.913 228.731C148.892 174.897 178.173 141.123 213.895 120.673C249.448 100.319 291.353 93.1844 316 92.6583V98.503C218.606 109.925 193.606 160.222 193.374 184.168L193.364 185.21L194.038 184.415C200.643 176.622 212.905 172.772 225.6 172.349C238.289 171.926 251.284 174.932 259.29 180.704C290.308 203.065 299.065 227.109 294.859 248.092C290.646 269.113 273.4 287.194 252.137 297.546C230.875 307.897 205.687 310.475 185.652 300.606C165.645 290.751 150.666 268.427 149.913 228.731ZM300.361 275.946C300.569 275.946 300.737 276.115 300.737 276.323C300.737 280.388 298.047 284.965 294.698 289.018C291.333 293.089 287.234 296.71 284.283 298.873C280.675 301.52 276.318 304.345 271.731 306.536C267.147 308.726 262.31 310.294 257.747 310.4C257.539 310.405 257.367 310.24 257.362 310.032C257.357 309.825 257.522 309.652 257.73 309.647C262.143 309.545 266.871 308.023 271.406 305.857C275.937 303.692 280.253 300.895 283.838 298.266C286.745 296.134 290.797 292.555 294.117 288.538C297.453 284.503 299.984 280.104 299.984 276.323C299.984 276.115 300.153 275.946 300.361 275.946ZM308.812 296.391C308.812 296.183 308.643 296.015 308.435 296.015C308.227 296.015 308.059 296.183 308.059 296.391C308.059 302.537 305.093 306.537 300.304 310.809C294.492 315.993 287.088 317.104 279.061 317.104C278.853 317.104 278.684 317.273 278.684 317.481C278.684 317.689 278.853 317.857 279.061 317.857C287.137 317.857 294.78 316.746 300.805 311.371C305.658 307.042 308.812 302.854 308.812 296.391Z" fill="#4F4F4F"/>
</svg>
