<svg width="86" height="86" viewBox="0 0 86 86" fill="none" xmlns="http://www.w3.org/2000/svg">
<path fill-rule="evenodd" clip-rule="evenodd" d="M45.4589 0.999951V0.897949L45.3569 0.899856C38.7944 1.02254 27.5527 2.91583 18.0162 8.3755C8.47529 13.8376 0.633624 22.8753 0.906832 37.2786C1.10796 47.8821 5.11442 53.899 10.5193 56.5613C15.9167 59.22 22.6796 58.5181 28.3693 55.7481C34.0585 52.9783 38.6989 48.1288 39.835 42.4611C40.9731 36.7835 38.5884 30.3202 30.3004 24.3452C28.124 22.7762 24.6206 21.9732 21.2206 22.0865C17.9341 22.1961 14.7125 23.1631 12.8674 25.1579C13.1129 18.8104 19.8421 5.80984 45.3703 2.84435L45.4589 2.83406V2.74491V0.999951ZM1.10702 37.2748C0.835566 22.9639 8.61957 13.9857 18.1156 8.54926C27.5668 3.13848 38.7066 1.24193 45.2586 1.10209V2.6558C19.368 5.69205 12.7223 19.0629 12.6605 25.4284L12.6578 25.7055L12.837 25.4941C14.5929 23.4224 17.8524 22.3991 21.2273 22.2866C24.6004 22.1742 28.0548 22.9731 30.1833 24.5076C38.4287 30.452 40.7568 36.8437 39.6387 42.4217C38.5186 48.0096 33.9342 52.8161 28.2816 55.5681C22.6295 58.3198 15.9338 59.0052 10.6077 56.3817C5.28911 53.7619 1.30719 47.8273 1.10702 37.2748ZM85.1033 25.4275V25.3254L85.0013 25.3274C78.4388 25.45 67.1972 27.3433 57.6606 32.803C48.1197 38.2651 40.2781 47.3028 40.5513 61.7061C40.7524 72.3096 44.7589 78.3265 50.1637 80.9888C55.5611 83.6475 62.3241 82.9456 68.0137 80.1756C73.7029 77.4058 78.3434 72.5563 79.4795 66.8886C80.6175 61.211 78.2329 54.7477 69.9449 48.7727C67.7685 47.2037 64.2651 46.4007 60.8651 46.514C57.5785 46.6236 54.3569 47.5906 52.5118 49.5854C52.7573 43.2379 59.4866 30.2373 85.0147 27.2719L85.1033 27.2616V27.1724V25.4275ZM40.7515 61.7023C40.48 47.3914 48.264 38.4132 57.7601 32.9768C67.2113 27.566 78.351 25.6694 84.9031 25.5296V27.0833C59.0124 30.1196 52.3667 43.4904 52.3049 49.8559L52.3023 50.133L52.4814 49.9216C54.2374 47.8499 57.4969 46.8266 60.8718 46.7141C64.2448 46.6017 67.6993 47.4006 69.8278 48.9351C78.0732 54.8795 80.4012 61.2712 79.2831 66.8492C78.1631 72.4371 73.5786 77.2436 67.9261 79.9956C62.2739 82.7473 55.5782 83.4327 50.2522 80.8092C44.9335 78.1894 40.9516 72.2548 40.7515 61.7023ZM80.7458 74.2538C80.8011 74.2538 80.8459 74.2986 80.8459 74.3539C80.8459 75.4345 80.1309 76.6514 79.2404 77.7287C78.3459 78.8109 77.2563 79.7734 76.472 80.3486C75.5127 81.0521 74.3544 81.8032 73.135 82.3857C71.9166 82.9678 70.6307 83.3846 69.4178 83.4128C69.3625 83.4141 69.3167 83.3704 69.3154 83.3151C69.3141 83.2598 69.3578 83.214 69.4131 83.2127C70.5864 83.1854 71.8431 82.781 73.0487 82.2051C74.2533 81.6296 75.4006 80.886 76.3536 80.1872C77.1264 79.6204 78.2034 78.669 79.0861 77.6011C79.9728 76.5284 80.6457 75.3592 80.6457 74.3539C80.6457 74.2986 80.6905 74.2538 80.7458 74.2538ZM82.9925 79.6888C82.9925 79.6335 82.9477 79.5887 82.8924 79.5887C82.8371 79.5887 82.7923 79.6335 82.7923 79.6888C82.7923 81.3224 82.004 82.3857 80.7307 83.5215C79.1859 84.8995 77.2176 85.195 75.0836 85.195C75.0283 85.195 74.9835 85.2398 74.9835 85.2951C74.9835 85.3504 75.0283 85.3952 75.0836 85.3952C77.2305 85.3952 79.2623 85.0996 80.864 83.6709C82.154 82.5202 82.9925 81.4068 82.9925 79.6888Z" fill="#4F4F4F"/>
</svg>
