<?xml version="1.0" encoding="UTF-8"?>
<svg xmlns="http://www.w3.org/2000/svg" xmlns:xlink="http://www.w3.org/1999/xlink" width="171pt" height="171pt" viewBox="0 0 171 171" version="1.1">
<g id="surface1">
<path style=" stroke:none;fill-rule:evenodd;fill:rgb(30.980392%,30.980392%,30.980392%);fill-opacity:1;" d="M 90.417969 0.207031 L 90.417969 0 L 90.210938 0.00390625 C 76.894531 0.253906 54.085938 4.082031 34.734375 15.125 C 15.371094 26.175781 -0.539062 44.457031 0.015625 73.59375 C 0.421875 95.042969 8.550781 107.210938 19.519531 112.597656 C 30.472656 117.976562 44.195312 116.554688 55.742188 110.953125 C 67.285156 105.347656 76.703125 95.539062 79.007812 84.074219 C 81.316406 72.589844 76.476562 59.515625 59.660156 47.429688 C 55.242188 44.257812 48.132812 42.632812 41.234375 42.859375 C 34.566406 43.082031 28.027344 45.039062 24.285156 49.074219 C 24.78125 36.234375 38.4375 9.9375 90.238281 3.9375 L 90.417969 3.917969 Z M 0.421875 73.585938 C -0.128906 44.636719 15.664062 26.472656 34.933594 15.476562 C 54.113281 4.53125 76.71875 0.695312 90.011719 0.414062 L 90.011719 3.554688 C 37.476562 9.699219 23.988281 36.746094 23.863281 49.621094 L 23.859375 50.179688 L 24.222656 49.753906 C 27.785156 45.5625 34.398438 43.492188 41.25 43.265625 C 48.09375 43.039062 55.101562 44.652344 59.421875 47.757812 C 76.152344 59.78125 80.878906 72.710938 78.609375 83.996094 C 76.335938 95.296875 67.035156 105.019531 55.5625 110.589844 C 44.09375 116.15625 30.507812 117.539062 19.699219 112.234375 C 8.90625 106.933594 0.828125 94.929688 0.421875 73.585938 Z M 170.867188 49.617188 L 170.867188 49.414062 L 170.660156 49.417969 C 157.34375 49.664062 134.53125 53.496094 115.179688 64.539062 C 95.820312 75.585938 79.90625 93.871094 80.460938 123.003906 C 80.871094 144.453125 89 156.625 99.96875 162.011719 C 110.917969 167.386719 124.644531 165.96875 136.1875 160.363281 C 147.734375 154.761719 157.148438 144.953125 159.453125 133.488281 C 161.765625 122.003906 156.925781 108.929688 140.105469 96.84375 C 135.691406 93.667969 128.582031 92.042969 121.683594 92.273438 C 115.011719 92.496094 108.476562 94.449219 104.730469 98.484375 C 105.230469 85.648438 118.886719 59.347656 170.6875 53.351562 L 170.867188 53.328125 Z M 80.867188 122.996094 C 80.316406 94.046875 96.113281 75.886719 115.382812 64.890625 C 134.558594 53.945312 157.164062 50.109375 170.460938 49.824219 L 170.460938 52.96875 C 117.921875 59.109375 104.4375 86.15625 104.3125 99.035156 L 104.308594 99.59375 L 104.671875 99.167969 C 108.234375 94.976562 114.847656 92.90625 121.695312 92.679688 C 128.539062 92.449219 135.550781 94.066406 139.871094 97.171875 C 156.601562 109.195312 161.324219 122.125 159.054688 133.40625 C 156.785156 144.710938 147.480469 154.433594 136.011719 160 C 124.542969 165.566406 110.953125 166.953125 100.148438 161.648438 C 89.355469 156.347656 81.273438 144.34375 80.867188 122.996094 Z M 162.023438 148.386719 C 162.136719 148.386719 162.226562 148.476562 162.226562 148.589844 C 162.226562 150.773438 160.777344 153.234375 158.96875 155.414062 C 157.15625 157.605469 154.941406 159.550781 153.351562 160.714844 C 151.40625 162.136719 149.054688 163.65625 146.582031 164.835938 C 144.109375 166.011719 141.5 166.855469 139.035156 166.914062 C 138.925781 166.914062 138.832031 166.828125 138.828125 166.714844 C 138.828125 166.605469 138.914062 166.511719 139.027344 166.507812 C 141.410156 166.453125 143.957031 165.636719 146.40625 164.46875 C 148.847656 163.304688 151.175781 161.800781 153.113281 160.386719 C 154.679688 159.242188 156.867188 157.316406 158.65625 155.15625 C 160.457031 152.988281 161.820312 150.621094 161.820312 148.589844 C 161.820312 148.476562 161.914062 148.386719 162.023438 148.386719 Z M 166.582031 159.378906 C 166.582031 159.269531 166.492188 159.179688 166.378906 159.179688 C 166.265625 159.179688 166.175781 159.269531 166.175781 159.378906 C 166.175781 162.683594 164.578125 164.835938 161.992188 167.132812 C 158.859375 169.921875 154.863281 170.519531 150.535156 170.519531 C 150.421875 170.519531 150.332031 170.609375 150.332031 170.722656 C 150.332031 170.832031 150.421875 170.921875 150.535156 170.921875 C 154.890625 170.921875 159.015625 170.324219 162.265625 167.433594 C 164.882812 165.109375 166.582031 162.855469 166.582031 159.378906 Z M 166.582031 159.378906 "/>
</g>
</svg>
